<?xml version="1.0" encoding="iso-8859-1"?>
<!-- Generator: Adobe Illustrator 19.0.0, SVG Export Plug-In . SVG Version: 6.00 Build 0)  -->
<svg version="1.1" id="Layer_1" xmlns="http://www.w3.org/2000/svg" xmlns:xlink="http://www.w3.org/1999/xlink" x="0px" y="0px"
	 viewBox="0 0 512 512" style="enable-background:new 0 0 512 512;" xml:space="preserve">
<rect y="165.094" style="fill:#AED5F3;" width="512" height="289.437"/>
<rect x="256" y="165.094" style="fill:#78B9EB;" width="256" height="289.437"/>
<rect y="57.469" style="fill:#565659;" width="263.314" height="88.816"/>
<rect x="25.13" y="80.792" style="fill:#FF5023;" width="31.347" height="31.347"/>
<rect x="77.385" y="80.792" style="fill:#FFDA44;" width="31.347" height="31.347"/>
<rect x="129.63" y="80.792" style="fill:#64C37D;" width="31.347" height="31.347"/>
<g>
	<path style="fill:#FFFFFF;" d="M134.857,263.837h25.025l8.668,30.619l8.807-30.619h25.026l-16.358,47.396l7.13,20.691
		l21.391-68.088h29.64l-38.867,99.265h-22.649l-14.121-35.512l-13.981,35.512H131.92l-38.867-99.265h29.5l21.53,68.088l6.851-20.691
		L134.857,263.837z"/>
	<path style="fill:#FFFFFF;" d="M321.782,339.335v23.767h-70.745v-99.265h69.486v23.768H278.3v13.981h36.071v22.09H278.3v15.659
		H321.782z"/>
	<path style="fill:#FFFFFF;" d="M418.947,337.657c0,4.473-0.933,8.318-2.796,11.535c-1.865,3.216-4.428,5.85-7.689,7.899
		c-3.264,2.051-7.06,3.565-11.395,4.544c-4.334,0.978-8.927,1.468-13.772,1.468h-48.794v-99.265h57.602
		c3.447,0,6.571,0.747,9.367,2.237c2.796,1.492,5.173,3.425,7.13,5.802c1.957,2.377,3.471,5.081,4.544,8.109
		c1.071,3.03,1.608,6.129,1.608,9.298c0,4.662-1.188,9.113-3.565,13.353c-2.376,4.242-5.941,7.434-10.696,9.577
		c5.684,1.678,10.183,4.591,13.492,8.738C417.291,325.098,418.947,330.666,418.947,337.657z M361.765,287.045v15.239h18.595
		c1.864,0,3.565-0.511,5.103-1.538c1.538-1.024,2.307-3.076,2.307-6.151c0-2.702-0.653-4.636-1.957-5.802
		c-1.306-1.164-2.844-1.747-4.614-1.747H361.765z M391.264,332.064c0-2.422-0.653-4.45-1.957-6.081
		c-1.306-1.629-2.984-2.446-5.033-2.446h-22.509v16.638h21.531c2.237,0,4.124-0.699,5.662-2.097
		C390.496,336.678,391.264,334.675,391.264,332.064z"/>
</g>
<polygon style="fill:#B6B6B6;" points="0,135.837 0,172.408 350.041,172.408 350.041,135.837 256,57.469 203.755,135.837 "/>
<rect x="256" y="57.469" style="fill:#9D9D9D;" width="256" height="114.939"/>
<g>
</g>
<g>
</g>
<g>
</g>
<g>
</g>
<g>
</g>
<g>
</g>
<g>
</g>
<g>
</g>
<g>
</g>
<g>
</g>
<g>
</g>
<g>
</g>
<g>
</g>
<g>
</g>
<g>
</g>
</svg>
